<svg xmlns="http://www.w3.org/2000/svg" version="1.1" xmlns:xlink="http://www.w3.org/1999/xlink" xmlns:svgjs="http://svgjs.dev/svgjs" width="2000" height="200" preserveAspectRatio="none" viewBox="0 0 2000 200"><g mask="url(&quot;#SvgjsMask1117&quot;)" fill="none"><path d="M407.95 181.84L414.83 181.84L414.83 199.31L407.95 199.31z" stroke="rgba(214, 51, 132, 1)"></path><path d="M3.2 198.03L16.05 198.03L16.05 210.88L3.2 210.88z" stroke="rgba(102, 16, 242, 1)"></path><path d="M1061.85 88.27 a17.55 17.55 0 1 0 35.1 0 a17.55 17.55 0 1 0 -35.1 0z" stroke="rgba(102, 16, 242, 1)"></path><path d="M380.81 196.68L393.13 196.68L393.13 199.57L380.81 199.57z" fill="rgba(214, 51, 132, 1)"></path><path d="M1816.75 175.36a12.27 12.27 0 1 0 24.48-1.62z" stroke="rgba(102, 16, 242, 1)"></path><path d="M1559.12 31.05a17.84 17.84 0 1 0-11.56 33.75z" stroke="rgba(253, 126, 20, 1)"></path><path d="M1543.39 67.27L1547.28 67.27L1547.28 87.02L1543.39 87.02z" stroke="rgba(253, 126, 20, 1)"></path><path d="M1389.87 1.25 a18.95 18.95 0 1 0 37.9 0 a18.95 18.95 0 1 0 -37.9 0z" stroke="rgba(214, 51, 132, 1)"></path><path d="M1415.11 101.26a18.23 18.23 0 1 0-31.89 17.67z" stroke="rgba(253, 126, 20, 1)"></path><path d="M235.16 194.97L239.54 194.97L239.54 199.35L235.16 199.35z" fill="rgba(214, 51, 132, 1)"></path><path d="M4.54 46.23a18.62 18.62 0 1 0 28.22 24.3z" stroke="rgba(102, 16, 242, 1)"></path><path d="M1567.79 96.53L1579.41 96.53L1579.41 108.15L1567.79 108.15z" stroke="rgba(253, 126, 20, 1)"></path><path d="M468.35 89.91L482.11 89.91L482.11 90.35L468.35 90.35z" stroke="rgba(214, 51, 132, 1)"></path><path d="M313.83 0.92a5.4 5.4 0 1 0 4.71 9.72z" fill="rgba(214, 51, 132, 1)"></path><path d="M1835.16 32.36L1837.92 32.36L1837.92 38.91L1835.16 38.91z" fill="rgba(253, 126, 20, 1)"></path><path d="M1173.05 6.13L1191.84 6.13L1191.84 24.92L1173.05 24.92z" fill="rgba(102, 16, 242, 1)"></path><path d="M1495.71 105.45L1513.73 105.45L1513.73 123.47L1495.71 123.47z" fill="rgba(253, 126, 20, 1)"></path><path d="M1117.26 51.51L1135.16 51.51L1135.16 69.41L1117.26 69.41z" fill="rgba(214, 51, 132, 1)"></path><path d="M1516.97 192.2L1532.87 192.2L1532.87 208.1L1516.97 208.1z" fill="rgba(214, 51, 132, 1)"></path><path d="M89.1 4.27L106.53 4.27L106.53 21.7L89.1 21.7z" stroke="rgba(253, 126, 20, 1)"></path><path d="M143.37 183.73 a4.36 4.36 0 1 0 8.72 0 a4.36 4.36 0 1 0 -8.72 0z" stroke="rgba(253, 126, 20, 1)"></path><path d="M1150.75 106.13L1168.5 106.13L1168.5 122.23L1150.75 122.23z" stroke="rgba(214, 51, 132, 1)"></path><path d="M321.51 53.67L333.08 53.67L333.08 65.24L321.51 65.24z" fill="rgba(214, 51, 132, 1)"></path><path d="M1023.87 148.26 a6.98 6.98 0 1 0 13.96 0 a6.98 6.98 0 1 0 -13.96 0z" stroke="rgba(214, 51, 132, 1)"></path><path d="M237.71 36.84 a15.5 15.5 0 1 0 31 0 a15.5 15.5 0 1 0 -31 0z" stroke="rgba(102, 16, 242, 1)"></path><path d="M257.99 178.66a14.74 14.74 0 1 0 28.04 9.12z" fill="rgba(102, 16, 242, 1)"></path><path d="M607.91 134.24a8.17 8.17 0 1 0-11.37-11.74z" fill="rgba(214, 51, 132, 1)"></path><path d="M776.68 3.31L782.71 3.31L782.71 14.73L776.68 14.73z" fill="rgba(214, 51, 132, 1)"></path><path d="M1539.89 191.48a0.3 0.3 0 1 0 0.32-0.51z" fill="rgba(102, 16, 242, 1)"></path><path d="M1984.07 60.87a12.35 12.35 0 1 0 9.84 22.65z" fill="rgba(102, 16, 242, 1)"></path><path d="M-4.03 116.74 a4.41 4.41 0 1 0 8.82 0 a4.41 4.41 0 1 0 -8.82 0z" fill="rgba(214, 51, 132, 1)"></path><path d="M538.47 0.46 a18.37 18.37 0 1 0 36.74 0 a18.37 18.37 0 1 0 -36.74 0z" stroke="rgba(102, 16, 242, 1)"></path><path d="M1178.97 100.12L1185.53 100.12L1185.53 106.68L1178.97 106.68z" stroke="rgba(214, 51, 132, 1)"></path><path d="M596.79 145.8L604.27 145.8L604.27 153.28L596.79 153.28z" fill="rgba(102, 16, 242, 1)"></path><path d="M1863.02 138.21L1870.22 138.21L1870.22 144.37L1863.02 144.37z" stroke="rgba(102, 16, 242, 1)"></path><path d="M1205.57 22.33L1225.03 22.33L1225.03 41.79L1205.57 41.79z" stroke="rgba(253, 126, 20, 1)"></path><path d="M127.15 169.36L146.11 169.36L146.11 188.32L127.15 188.32z" stroke="rgba(102, 16, 242, 1)"></path><path d="M1712.13 196.5L1713.61 196.5L1713.61 215.67L1712.13 215.67z" fill="rgba(102, 16, 242, 1)"></path><path d="M1412.8 142.89L1423.69 142.89L1423.69 153.78L1412.8 153.78z" fill="rgba(102, 16, 242, 1)"></path><path d="M1742.82 139.93a15.76 15.76 0 1 0-29.69-10.57z" fill="rgba(102, 16, 242, 1)"></path><path d="M960.19 17.85 a16.6 16.6 0 1 0 33.2 0 a16.6 16.6 0 1 0 -33.2 0z" stroke="rgba(102, 16, 242, 1)"></path><path d="M1831.77 58.32 a17.51 17.51 0 1 0 35.02 0 a17.51 17.51 0 1 0 -35.02 0z" stroke="rgba(253, 126, 20, 1)"></path><path d="M1368.56 88.77a9.57 9.57 0 1 0 17.74-7.16z" fill="rgba(102, 16, 242, 1)"></path><path d="M376.47 151.9L386.55 151.9L386.55 161.98L376.47 161.98z" fill="rgba(102, 16, 242, 1)"></path><path d="M1962.55 1.3 a13.6 13.6 0 1 0 27.2 0 a13.6 13.6 0 1 0 -27.2 0z" stroke="rgba(214, 51, 132, 1)"></path><path d="M1433.72 193.87a10.95 10.95 0 1 0 4.3-21.47z" fill="rgba(102, 16, 242, 1)"></path><path d="M691.66 136.54 a13.09 13.09 0 1 0 26.18 0 a13.09 13.09 0 1 0 -26.18 0z" stroke="rgba(214, 51, 132, 1)"></path><path d="M87.87 102.52 a8.01 8.01 0 1 0 16.02 0 a8.01 8.01 0 1 0 -16.02 0z" fill="rgba(214, 51, 132, 1)"></path><path d="M592.9 2.48a3.76 3.76 0 1 0-7.1-2.48z" fill="rgba(102, 16, 242, 1)"></path><path d="M1699.21 37.73 a15.54 15.54 0 1 0 31.08 0 a15.54 15.54 0 1 0 -31.08 0z" stroke="rgba(253, 126, 20, 1)"></path><path d="M178.5 173.85L179.65 173.85L179.65 175L178.5 175z" stroke="rgba(253, 126, 20, 1)"></path><path d="M-6.55 63.56 a8.33 8.33 0 1 0 16.66 0 a8.33 8.33 0 1 0 -16.66 0z" stroke="rgba(102, 16, 242, 1)"></path><path d="M1667.48 84.43L1685.56 84.43L1685.56 85.21L1667.48 85.21z" fill="rgba(102, 16, 242, 1)"></path><path d="M1138.16 32.34L1152.04 32.34L1152.04 46.22L1138.16 46.22z" stroke="rgba(102, 16, 242, 1)"></path><path d="M617.67 98.72a19.95 19.95 0 1 0-1.24 39.88z" stroke="rgba(214, 51, 132, 1)"></path><path d="M1052.01 58.85a0.19 0.19 0 1 0-0.36 0.11z" fill="rgba(102, 16, 242, 1)"></path><path d="M1643.89 13.19L1653.27 13.19L1653.27 22.57L1643.89 22.57z" stroke="rgba(253, 126, 20, 1)"></path><path d="M1628.34 128.72a19.76 19.76 0 1 0-37.59 12.2z" fill="rgba(253, 126, 20, 1)"></path><path d="M1730.53 61.79L1749.83 61.79L1749.83 70.47L1730.53 70.47z" fill="rgba(102, 16, 242, 1)"></path><path d="M1382.48 73.35 a19.32 19.32 0 1 0 38.64 0 a19.32 19.32 0 1 0 -38.64 0z" stroke="rgba(102, 16, 242, 1)"></path><path d="M273.02 134.28a18.68 18.68 0 1 0-28.09-24.63z" fill="rgba(253, 126, 20, 1)"></path><path d="M392.85 146.2L408.04 146.2L408.04 165.19L392.85 165.19z" fill="rgba(214, 51, 132, 1)"></path><path d="M161.5 203.59a5.6 5.6 0 1 0-8.03-7.81z" fill="rgba(102, 16, 242, 1)"></path><path d="M1388.73 129.2a8.86 8.86 0 1 0 16.21 7.16z" stroke="rgba(102, 16, 242, 1)"></path><path d="M183.09 32.85 a4.33 4.33 0 1 0 8.66 0 a4.33 4.33 0 1 0 -8.66 0z" fill="rgba(214, 51, 132, 1)"></path><path d="M59.27 200.18a2.78 2.78 0 1 0-5.26-1.78z" stroke="rgba(102, 16, 242, 1)"></path><path d="M623.85 17.73a12.21 12.21 0 1 0-14.97 19.29z" stroke="rgba(214, 51, 132, 1)"></path><path d="M1610.9 92.33L1616.39 92.33L1616.39 97.82L1610.9 97.82z" fill="rgba(102, 16, 242, 1)"></path><path d="M1619.62 109.42L1620.05 109.42L1620.05 111.86L1619.62 111.86z" stroke="rgba(102, 16, 242, 1)"></path><path d="M1394.52 168.18L1408.85 168.18L1408.85 177.87L1394.52 177.87z" fill="rgba(214, 51, 132, 1)"></path><path d="M1903.83 184.92a6.75 6.75 0 1 0 4.91 12.57z" stroke="rgba(214, 51, 132, 1)"></path><path d="M921.78 5.75 a10.93 10.93 0 1 0 21.86 0 a10.93 10.93 0 1 0 -21.86 0z" stroke="rgba(102, 16, 242, 1)"></path><path d="M1777.49 43.27L1795.2 43.27L1795.2 50.75L1777.49 50.75z" stroke="rgba(253, 126, 20, 1)"></path><path d="M205.56 91.47L207.21 91.47L207.21 93.12L205.56 93.12z" fill="rgba(253, 126, 20, 1)"></path><path d="M659.84 167.48a14.43 14.43 0 1 0 27.32-9.28z" stroke="rgba(253, 126, 20, 1)"></path><path d="M271.79 24.13L289.47 24.13L289.47 41.81L271.79 41.81z" stroke="rgba(253, 126, 20, 1)"></path><path d="M1953.82 115.27 a19.86 19.86 0 1 0 39.72 0 a19.86 19.86 0 1 0 -39.72 0z" stroke="rgba(214, 51, 132, 1)"></path><path d="M654.51 33.93L657.62 33.93L657.62 37.04L654.51 37.04z" stroke="rgba(214, 51, 132, 1)"></path><path d="M502.88 130.5L505.66 130.5L505.66 140.55L502.88 140.55z" stroke="rgba(102, 16, 242, 1)"></path><path d="M331.25 76.3a1.39 1.39 0 1 0 2.75 0.4z" stroke="rgba(102, 16, 242, 1)"></path><path d="M105.79 18.47L122.86 18.47L122.86 35.48L105.79 35.48z" fill="rgba(102, 16, 242, 1)"></path><path d="M883.94 162.47L902.3 162.47L902.3 180.83L883.94 180.83z" fill="rgba(102, 16, 242, 1)"></path><path d="M1255.69 35.14L1264.8 35.14L1264.8 44.25L1255.69 44.25z" stroke="rgba(253, 126, 20, 1)"></path><path d="M429.73 199.62L446.36 199.62L446.36 216.25L429.73 216.25z" stroke="rgba(214, 51, 132, 1)"></path><path d="M1644.03 191.62L1644.35 191.62L1644.35 195.71L1644.03 195.71z" fill="rgba(253, 126, 20, 1)"></path><path d="M1066.88 194.33a8.12 8.12 0 1 0 15.48-4.88z" stroke="rgba(102, 16, 242, 1)"></path><path d="M1780.55 47.17L1789.73 47.17L1789.73 56.35L1780.55 56.35z" stroke="rgba(214, 51, 132, 1)"></path><path d="M33.96 171.14L50.38 171.14L50.38 187.56L33.96 187.56z" fill="rgba(102, 16, 242, 1)"></path><path d="M1734.48 60.64a16.86 16.86 0 1 0-32.66-8.39z" fill="rgba(214, 51, 132, 1)"></path><path d="M1053.1 38.68a17.28 17.28 0 1 0 17.18-29.98z" stroke="rgba(214, 51, 132, 1)"></path><path d="M843.56 100.13L853.06 100.13L853.06 109.63L843.56 109.63z" fill="rgba(102, 16, 242, 1)"></path><path d="M1192.73 101.35L1196.43 101.35L1196.43 112.51L1192.73 112.51z" fill="rgba(214, 51, 132, 1)"></path><path d="M918.43 2.79L923.35 2.79L923.35 21.48L918.43 21.48z" fill="rgba(102, 16, 242, 1)"></path><path d="M784.72 169.44L802 169.44L802 187.19L784.72 187.19z" stroke="rgba(102, 16, 242, 1)"></path><path d="M1105.64 154 a5 5 0 1 0 10 0 a5 5 0 1 0 -10 0z" stroke="rgba(102, 16, 242, 1)"></path><path d="M1016.77 65.59L1019.59 65.59L1019.59 68.41L1016.77 68.41z" stroke="rgba(253, 126, 20, 1)"></path><path d="M792.7 165.17L806.46 165.17L806.46 184.39L792.7 184.39z" stroke="rgba(214, 51, 132, 1)"></path><path d="M1221.27 191.33L1223.71 191.33L1223.71 193.77L1221.27 193.77z" stroke="rgba(253, 126, 20, 1)"></path><path d="M2002.35 132.5a17.49 17.49 0 1 0-26.26-23.1z" fill="rgba(214, 51, 132, 1)"></path><path d="M1775.77 170.92L1786.17 170.92L1786.17 176.44L1775.77 176.44z" stroke="rgba(214, 51, 132, 1)"></path><path d="M30.97 143.9L45.4 143.9L45.4 158.33L30.97 158.33z" fill="rgba(102, 16, 242, 1)"></path><path d="M979.19 161.99L983.27 161.99L983.27 166.07L979.19 166.07z" stroke="rgba(253, 126, 20, 1)"></path><path d="M1917.59 98.81a18.54 18.54 0 1 0 31.56-19.48z" stroke="rgba(253, 126, 20, 1)"></path><path d="M487.33 139.47a17.49 17.49 0 1 0 29.6-18.65z" fill="rgba(102, 16, 242, 1)"></path><path d="M1791.9 108.03 a5.88 5.88 0 1 0 11.76 0 a5.88 5.88 0 1 0 -11.76 0z" stroke="rgba(102, 16, 242, 1)"></path><path d="M502.62 163.46 a19.38 19.38 0 1 0 38.76 0 a19.38 19.38 0 1 0 -38.76 0z" fill="rgba(253, 126, 20, 1)"></path><path d="M482.74 76.72 a1.79 1.79 0 1 0 3.58 0 a1.79 1.79 0 1 0 -3.58 0z" stroke="rgba(214, 51, 132, 1)"></path><path d="M1513.6 64.72L1530.75 64.72L1530.75 81.87L1513.6 81.87z" fill="rgba(253, 126, 20, 1)"></path><path d="M4.15 24.2L11.53 24.2L11.53 31.58L4.15 31.58z" fill="rgba(253, 126, 20, 1)"></path><path d="M1729.43 152a11.31 11.31 0 1 0-20.44 9.68z" stroke="rgba(214, 51, 132, 1)"></path><path d="M1424.85 9.05L1425.97 9.05L1425.97 18.16L1424.85 18.16z" fill="rgba(214, 51, 132, 1)"></path><path d="M1151.68 115.13a16.57 16.57 0 1 0 18.37 27.58z" fill="rgba(253, 126, 20, 1)"></path><path d="M1564.19 146.89 a12.07 12.07 0 1 0 24.14 0 a12.07 12.07 0 1 0 -24.14 0z" fill="rgba(253, 126, 20, 1)"></path><path d="M1974.87 15.52L1991.48 15.52L1991.48 22.53L1974.87 22.53z" stroke="rgba(253, 126, 20, 1)"></path><path d="M1481.34 212.84a13.46 13.46 0 1 0 2.18-26.83z" stroke="rgba(253, 126, 20, 1)"></path><path d="M758.23 161.31 a19.98 19.98 0 1 0 39.96 0 a19.98 19.98 0 1 0 -39.96 0z" stroke="rgba(253, 126, 20, 1)"></path><path d="M1534.93 115.49 a7.2 7.2 0 1 0 14.4 0 a7.2 7.2 0 1 0 -14.4 0z" fill="rgba(253, 126, 20, 1)"></path><path d="M1577.94 49.61L1581.74 49.61L1581.74 60.41L1577.94 60.41z" stroke="rgba(253, 126, 20, 1)"></path><path d="M1133.73 127.22 a10.78 10.78 0 1 0 21.56 0 a10.78 10.78 0 1 0 -21.56 0z" stroke="rgba(102, 16, 242, 1)"></path><path d="M1666.22 150.03 a4.63 4.63 0 1 0 9.26 0 a4.63 4.63 0 1 0 -9.26 0z" fill="rgba(214, 51, 132, 1)"></path><path d="M1539.46 142.94L1549.89 142.94L1549.89 157.28L1539.46 157.28z" fill="rgba(214, 51, 132, 1)"></path><path d="M488.06 17.62a5.62 5.62 0 1 0 5.05 10.04z" stroke="rgba(253, 126, 20, 1)"></path><path d="M194.78 175.43L201.61 175.43L201.61 182.26L194.78 182.26z" stroke="rgba(214, 51, 132, 1)"></path><path d="M988.19 128.13L1001.04 128.13L1001.04 137.32L988.19 137.32z" stroke="rgba(253, 126, 20, 1)"></path><path d="M734.44 37.06a0.39 0.39 0 1 0 0.76-0.14z" stroke="rgba(253, 126, 20, 1)"></path></g><defs><mask id="SvgjsMask1117"><rect width="2000" height="200" fill="#ffffff"></rect></mask></defs></svg>